<svg xmlns="http://www.w3.org/2000/svg" width="1200" height="630" viewBox="0 0 1200 630" role="img" aria-labelledby="title">
  <title id="title">ILIMNI Learn — Learn to Think, Not Just Click.</title>
  <defs>
    <linearGradient id="ogBrandGradient" x1="0" y1="0" x2="64" y2="64" gradientUnits="userSpaceOnUse">
      <stop offset="0" stop-color="#6d28d9"/>
      <stop offset="1" stop-color="#4c1d95"/>
    </linearGradient>
  </defs>

  <rect width="1200" height="630" fill="#fafafa"/>

  <rect x="80" y="76" width="64" height="64" rx="16" fill="url(#ogBrandGradient)"/>
  <svg x="95" y="87" width="36" height="42" viewBox="0 0 575 575">
    <g transform="matrix(1,0,0,1,-3684.905752,-273.016734)">
      <g transform="matrix(1,0,0,1,3390,0)">
        <g transform="matrix(1.355228,0,0,1.355228,-149.74814,-171.637157)">
          <circle cx="540" cy="518.608" r="65.26" style="fill:white;"/>
          <g transform="matrix(1,0,0,0.953411,0.479719,25.714575)">
            <rect x="516.52" y="551.941" width="46" height="199.956" style="fill:white;"/>
          </g>
          <path d="M540,328.103C656.949,328.103 751.897,423.051 751.897,540C751.897,656.949 656.949,751.897 540,751.897C423.051,751.897 328.103,656.949 328.103,540C328.103,423.051 423.051,328.103 540,328.103ZM540,374.824C448.837,374.824 374.824,448.837 374.824,540C374.824,631.163 448.837,705.176 540,705.176C631.163,705.176 705.176,631.163 705.176,540C705.176,448.837 631.163,374.824 540,374.824Z" style="fill:white;"/>
        </g>
      </g>
    </g>
  </svg>
  <text x="164" y="99" fill="#5b21b6" font-family="Arial, sans-serif" font-size="21" font-weight="800" letter-spacing="3">ILIMNI</text>
  <text x="164" y="127" fill="#171717" font-family="Arial, sans-serif" font-size="23" font-weight="700">Learn</text>

  <text x="78" y="278" fill="#171717" font-family="Arial, sans-serif" font-size="86" font-weight="800" letter-spacing="-2">Learn to Think,</text>
  <text x="78" y="368" fill="#5b21b6" font-family="Arial, sans-serif" font-size="86" font-weight="800" letter-spacing="-2">Not Just Click.</text>
  <text x="80" y="432" fill="#525252" font-family="Arial, sans-serif" font-size="28">Digital literacy, built through thought.</text>
</svg>
