<?xml version="1.0" encoding="UTF-8" standalone="no"?>
<!DOCTYPE svg PUBLIC "-//W3C//DTD SVG 1.1//EN" "http://www.w3.org/Graphics/SVG/1.1/DTD/svg11.dtd">
<svg width="100%" height="100%" viewBox="0 0 328 328" version="1.1" xmlns="http://www.w3.org/2000/svg" xmlns:xlink="http://www.w3.org/1999/xlink" xml:space="preserve" xmlns:serif="http://www.serif.com/" style="fill-rule:evenodd;clip-rule:evenodd;stroke-linejoin:round;stroke-miterlimit:2;">
    <g transform="matrix(1,0,0,1,-4657.233981,-1726.909409)">
        <g transform="matrix(0.773184,0,0,0.773184,4403.550039,1473.225467)">
            <circle cx="540" cy="518.608" r="65.26" style="fill:white;"/>
            <g transform="matrix(1,0,0,0.953411,0.479719,25.714575)">
                <rect x="516.52" y="551.941" width="46" height="199.956" style="fill:white;"/>
            </g>
            <path d="M540,328.103C656.949,328.103 751.897,423.051 751.897,540C751.897,656.949 656.949,751.897 540,751.897C423.051,751.897 328.103,656.949 328.103,540C328.103,423.051 423.051,328.103 540,328.103ZM540,357.016C439.008,357.016 357.016,439.008 357.016,540C357.016,640.992 439.008,722.984 540,722.984C640.992,722.984 722.984,640.992 722.984,540C722.984,439.008 640.992,357.016 540,357.016Z" style="fill:white;"/>
        </g>
    </g>
</svg>
