<?xml version="1.0" encoding="UTF-8" standalone="no"?>
<!DOCTYPE svg PUBLIC "-//W3C//DTD SVG 1.1//EN" "http://www.w3.org/Graphics/SVG/1.1/DTD/svg11.dtd">
<svg width="100%" height="100%" viewBox="0 0 1349 328" version="1.1" xmlns="http://www.w3.org/2000/svg" xmlns:xlink="http://www.w3.org/1999/xlink" xml:space="preserve" xmlns:serif="http://www.serif.com/" style="fill-rule:evenodd;clip-rule:evenodd;stroke-linejoin:round;stroke-miterlimit:2;">
    <g transform="matrix(1,0,0,1,-4657.233981,-1726.909409)">
        <g transform="matrix(0.773184,0,0,0.773184,4403.550039,1473.225467)">
            <circle cx="540" cy="518.608" r="65.26" style="fill:white;"/>
            <g transform="matrix(1,0,0,0.953411,0.479719,25.714575)">
                <rect x="516.52" y="551.941" width="46" height="199.956" style="fill:white;"/>
            </g>
            <path d="M540,328.103C656.949,328.103 751.897,423.051 751.897,540C751.897,656.949 656.949,751.897 540,751.897C423.051,751.897 328.103,656.949 328.103,540C328.103,423.051 423.051,328.103 540,328.103ZM540,357.016C439.008,357.016 357.016,439.008 357.016,540C357.016,640.992 439.008,722.984 540,722.984C640.992,722.984 722.984,640.992 722.984,540C722.984,439.008 640.992,357.016 540,357.016Z" style="fill:white;"/>
        </g>
        <g transform="matrix(1.679876,0,0,2.273647,4599.124473,434.017589)">
            <g transform="matrix(1,0,0,1,-11.35459,0)">
                <rect x="278.849" y="573.645" width="18.017" height="139.115" style="fill:white;fill-rule:nonzero;"/>
            </g>
            <g transform="matrix(1,0,0,1,-12.073562,-0)">
                <path d="M356.244,592.581C363.857,592.581 369.44,588.269 369.44,582.832C369.44,577.77 363.603,573.645 356.244,573.645C348.885,573.645 343.049,577.957 343.049,583.019C343.049,588.269 348.885,592.581 356.244,592.581ZM347.109,712.759L365.126,712.759L365.126,614.142L347.109,614.142L347.109,712.759Z" style="fill:white;fill-rule:nonzero;"/>
            </g>
            <g transform="matrix(1.332528,0,0,0.984534,-6251.343468,123.023865)">
                <circle cx="4949.626" cy="467.44" r="14.821" style="fill:white;"/>
                <path d="M4949.626,452.619C4957.806,452.619 4964.447,459.26 4964.447,467.44C4964.447,475.62 4957.806,482.261 4949.626,482.261C4941.446,482.261 4934.805,475.62 4934.805,467.44C4934.805,459.26 4941.446,452.619 4949.626,452.619ZM4949.626,452.712C4941.498,452.712 4934.898,459.312 4934.898,467.44C4934.898,475.568 4941.498,482.168 4949.626,482.168C4957.754,482.168 4964.353,475.568 4964.353,467.44C4964.353,459.312 4957.754,452.712 4949.626,452.712Z"/>
            </g>
            <g transform="matrix(1.6917,0,0,1.249907,-400.177079,-101.304633)">
                <path d="M481.287,578.784C486.73,574.114 494.121,571.8 502.887,571.8L510.237,571.8C521.619,571.8 530.833,576.022 536.187,584.466C541.541,576.022 550.755,571.8 562.137,571.8L569.487,571.8C578.253,571.8 585.643,574.114 591.087,578.784C597.566,584.344 601.287,593.241 601.287,605.55L601.287,651.3L590.637,651.3L590.637,606.6C590.637,589.95 582.237,581.4 567.987,581.4C567.35,581.4 566.722,581.416 566.104,581.449C565.491,581.416 564.868,581.4 564.237,581.4C549.837,581.4 541.437,589.95 541.437,606.6L541.437,651.3L530.937,651.3L530.937,606.6C530.937,589.95 522.537,581.4 508.137,581.4C507.506,581.4 506.883,581.416 506.27,581.449C505.652,581.416 505.024,581.4 504.387,581.4C490.137,581.4 481.737,589.95 481.737,606.6L481.737,651.3L471.087,651.3L471.087,605.55C471.087,593.241 474.808,584.344 481.287,578.784Z" style="fill:white;"/>
            </g>
            <g transform="matrix(1.6917,0,0,1.249907,-417.49491,-101.304633)">
                <path d="M630.237,605.55C630.237,593.452 634.003,584.65 640.437,579.073C646.049,574.209 653.692,571.8 662.637,571.8L670.437,571.8C679.382,571.8 687.025,574.209 692.637,579.073C699.071,584.65 702.837,593.452 702.837,605.55L702.837,651.3L692.187,651.3L692.187,606.6C692.187,589.95 683.487,581.4 668.487,581.4C667.827,581.4 667.177,581.416 666.537,581.448C665.897,581.416 665.247,581.4 664.587,581.4C649.587,581.4 640.887,589.95 640.887,606.6L640.887,651.3L630.237,651.3L630.237,605.55Z" style="fill:white;"/>
            </g>
            <g transform="matrix(1,0,0,1,-47.683842,0)">
                <path d="M865.531,592.581C873.143,592.581 878.726,588.269 878.726,582.832C878.726,577.77 872.889,573.645 865.531,573.645C858.172,573.645 852.335,577.957 852.335,583.019C852.335,588.269 858.172,592.581 865.531,592.581ZM856.395,712.759L874.412,712.759L874.412,614.142L856.395,614.142L856.395,712.759Z" style="fill:white;fill-rule:nonzero;"/>
            </g>
            <g transform="matrix(1.332528,0,0,0.984534,-5777.667534,123.023865)">
                <circle cx="4949.626" cy="467.44" r="14.821" style="fill:white;"/>
                <path d="M4949.626,452.619C4957.806,452.619 4964.447,459.26 4964.447,467.44C4964.447,475.62 4957.806,482.261 4949.626,482.261C4941.446,482.261 4934.805,475.62 4934.805,467.44C4934.805,459.26 4941.446,452.619 4949.626,452.619ZM4949.626,452.712C4941.498,452.712 4934.898,459.312 4934.898,467.44C4934.898,475.568 4941.498,482.168 4949.626,482.168C4957.754,482.168 4964.353,475.568 4964.353,467.44C4964.353,459.312 4957.754,452.712 4949.626,452.712Z"/>
            </g>
        </g>
    </g>
</svg>
