<svg xmlns="http://www.w3.org/2000/svg" width="1200" height="630" viewBox="0 0 1200 630" role="img" aria-labelledby="title description">
  <title id="title">ILIMNI Learn</title>
  <desc id="description">A thoughtful learning space. Learn to Think, Not Just Click.</desc>
  <defs>
    <linearGradient id="ogBrandGradient" x1="0" y1="0" x2="56" y2="56" gradientUnits="userSpaceOnUse">
      <stop offset="0" stop-color="#6d28d9"/>
      <stop offset="1" stop-color="#4c1d95"/>
    </linearGradient>
    <linearGradient id="ogBrandGradientSm" x1="0" y1="0" x2="30" y2="30" gradientUnits="userSpaceOnUse">
      <stop offset="0" stop-color="#6d28d9"/>
      <stop offset="1" stop-color="#4c1d95"/>
    </linearGradient>
  </defs>

  <rect width="1200" height="630" fill="#fafafa"/>
  <circle cx="1120" cy="-20" r="280" fill="#f3e8ff"/>
  <circle cx="1030" cy="550" r="230" fill="#ede9fe"/>

  <!-- Brand mark: parent identity ILIMNI + product Learn, using the real logo container -->
  <rect x="76" y="70" width="56" height="56" rx="14" fill="url(#ogBrandGradient)"/>
  <svg x="88" y="80" width="32" height="36" viewBox="0 0 575 575">
    <g transform="matrix(1,0,0,1,-3684.905752,-273.016734)">
      <g transform="matrix(1,0,0,1,3390,0)">
        <g transform="matrix(1.355228,0,0,1.355228,-149.74814,-171.637157)">
          <circle cx="540" cy="518.608" r="65.26" style="fill:white;"/>
          <g transform="matrix(1,0,0,0.953411,0.479719,25.714575)">
            <rect x="516.52" y="551.941" width="46" height="199.956" style="fill:white;"/>
          </g>
          <path d="M540,328.103C656.949,328.103 751.897,423.051 751.897,540C751.897,656.949 656.949,751.897 540,751.897C423.051,751.897 328.103,656.949 328.103,540C328.103,423.051 423.051,328.103 540,328.103ZM540,374.824C448.837,374.824 374.824,448.837 374.824,540C374.824,631.163 448.837,705.176 540,705.176C631.163,705.176 705.176,631.163 705.176,540C705.176,448.837 631.163,374.824 540,374.824Z" style="fill:white;"/>
        </g>
      </g>
    </g>
  </svg>
  <text x="146" y="93" fill="#5b21b6" font-family="Arial, sans-serif" font-size="20" font-weight="800" letter-spacing="3">ILIMNI</text>
  <text x="146" y="119" fill="#171717" font-family="Arial, sans-serif" font-size="22" font-weight="700">Learn</text>

  <text x="78" y="238" fill="#171717" font-family="Arial, sans-serif" font-size="72" font-weight="700" letter-spacing="-1">Learn to Think,</text>
  <text x="78" y="318" fill="#5b21b6" font-family="Arial, sans-serif" font-size="72" font-weight="700" letter-spacing="-1">Not Just Click.</text>
  <text x="80" y="378" fill="#525252" font-family="Arial, sans-serif" font-size="26">Thoughtful practice, reflection, and discovery.</text>

  <rect x="76" y="428" width="190" height="54" rx="12" fill="#171717"/>
  <text x="106" y="462" fill="#fff" font-family="Arial, sans-serif" font-size="19" font-weight="700">Continue learning</text>

  <g transform="translate(754 124)">
    <rect width="356" height="318" rx="20" fill="#fff" stroke="#e5e5e5" stroke-width="2"/>
    <rect x="25" y="26" width="30" height="30" rx="9" fill="url(#ogBrandGradientSm)"/>
    <svg x="30" y="30" width="16" height="19" viewBox="0 0 575 575">
      <g transform="matrix(1,0,0,1,-3684.905752,-273.016734)">
        <g transform="matrix(1,0,0,1,3390,0)">
          <g transform="matrix(1.355228,0,0,1.355228,-149.74814,-171.637157)">
            <circle cx="540" cy="518.608" r="65.26" style="fill:white;"/>
            <g transform="matrix(1,0,0,0.953411,0.479719,25.714575)">
              <rect x="516.52" y="551.941" width="46" height="199.956" style="fill:white;"/>
            </g>
            <path d="M540,328.103C656.949,328.103 751.897,423.051 751.897,540C751.897,656.949 656.949,751.897 540,751.897C423.051,751.897 328.103,656.949 328.103,540C328.103,423.051 423.051,328.103 540,328.103ZM540,374.824C448.837,374.824 374.824,448.837 374.824,540C374.824,631.163 448.837,705.176 540,705.176C631.163,705.176 705.176,631.163 705.176,540C705.176,448.837 631.163,374.824 540,374.824Z" style="fill:white;"/>
          </g>
        </g>
      </g>
    </svg>
    <text x="70" y="47" fill="#171717" font-family="Arial, sans-serif" font-size="18" font-weight="700">Your learning space</text>
    <text x="25" y="102" fill="#737373" font-family="Arial, sans-serif" font-size="14">TODAY'S BIG IDEA</text>
    <text x="25" y="139" fill="#171717" font-family="Arial, sans-serif" font-size="23" font-weight="700">Ideas are tools for thinking.</text>
    <rect x="25" y="176" width="306" height="1" fill="#e5e5e5"/>
    <circle cx="42" cy="214" r="9" fill="#5b21b6"/><text x="62" y="220" fill="#404040" font-family="Arial, sans-serif" font-size="16">Investigate</text>
    <circle cx="42" cy="256" r="9" fill="#15803d"/><text x="62" y="262" fill="#404040" font-family="Arial, sans-serif" font-size="16">Make sense</text>
    <circle cx="42" cy="298" r="9" fill="#a16207"/><text x="62" y="304" fill="#404040" font-family="Arial, sans-serif" font-size="16">Carry it forward</text>
  </g>
</svg>
